{"title":"Crook 2013 720p UNRATED WEBRip x264 AAC-WTT","uid":9748849,"size":891796067,"categoryP":"video","categoryS":"hd___movies","magnet":"?xt=urn:btih:02cd4faa7022124da83d95017c6bc7a75d07d7f3&amp;dn=Crook+2013+720p+UNRATED+WEBRip+x264+AAC-WTT&amp;tr=udp%3A%2F%2Ftracker.openbittorrent.com%3A80&amp;tr=udp%3A%2F%2Fopen.demonii.com%3A1337&amp;tr=udp%3A%2F%2Ftracker.coppersurfer.tk%3A6969&amp;tr=udp%3A%2F%2Fexodus.desync.com%3A6969","seeders":1,"leechers":0,"uploader":".SceNe.","files":2,"time":1394632797,"description":" &lt;a href=&quot;http://s30.postimg.org/p16ficfkx/f_Fyi_Pfd.png&quot; rel=&quot;nofollow&quot; target=&quot;_NEW&quot;&gt;http://s30.postimg.org/p16ficfkx/f_Fyi_Pfd.png&lt;/a&gt;\n &lt;a href=&quot;\nhttp://www.imdb.com/title/tt2747908/&quot; rel=&quot;nofollow&quot; target=&quot;_NEW&quot;&gt;\nhttp://www.imdb.com/title/tt2747908/&lt;/a&gt;\n\nGeneral\nComplete name: Crook 2013 720p UNRATED WEBRip x264 AAC-WTT.MP4\nFormat: MPEG-4\nFormat profile: Base Media / Version 2\nCodec ID: mp42\nFile size: 850 MiB\nDuration: 1h 32mn\nOverall bit rate mode: Variable\nOverall bit rate: 1 292 Kbps\nEncoded date: UTC 2014-03-12 00:49:32\nTagged date: UTC 2014-03-12 01:07:22\n\nVideo\nID: 1\nFormat: AVC\nFormat/Info: Advanced Video Codec\nFormat profile: &lt;a class=&quot;__cf_email__&quot; href=&quot;/cdn-cgi/l/email-protection&quot; data-cfemail=&quot;591438303719156d7769&quot;&gt;[email&amp;#160;protected]&lt;/a&gt;&lt;script cf-hash='f9e31' type=&quot;text/javascript&quot;&gt;\n/* &lt;![CDATA[ */!function(){try{var t=&quot;currentScript&quot;in document?document.currentScript:function(){for(var t=document.getElementsByTagName(&quot;script&quot;),e=t.length;e--;)if(t[e].getAttribute(&quot;cf-hash&quot;))return t[e]}();if(t&amp;&amp;t.previousSibling){var e,r,n,i,c=t.previousSibling,a=c.getAttribute(&quot;data-cfemail&quot;);if(a){for(e=&quot;&quot;,r=parseInt(a.substr(0,2),16),n=2;a.length-n;n+=2)i=parseInt(a.substr(n,2),16)^r,e+=String.fromCharCode(i);e=document.createTextNode(e),c.parentNode.replaceChild(e,c)}}}catch(u){}}();/* ]]&gt; */&lt;/script&gt;\nFormat settings, CABAC: Yes\nFormat settings, ReFrames: 4 frames\nCodec ID: avc1\nCodec ID/Info: Advanced Video Coding\nDuration: 1h 32mn\nBit rate: 1 127 Kbps\nWidth: 1 280 pixels\nHeight: 532 pixels\nDisplay aspect ratio: 2.40:1\nFrame rate mode: Variable\nFrame rate: 23.976 fps\nMinimum frame rate: 23.810 fps\nMaximum frame rate: 24.390 fps\nColor space: YUV\nChroma subsampling: 4:2:0\nBit depth: 8 bits\nScan type: Progressive\nBits/(Pixel*Frame): 0.069\nStream size: 742 MiB (87%)\nWriting library: x264 core 130 r2273 b3065e6\nEncoding settings: cabac=1 / ref=1 / deblock=1:0:0 / analyse=0x1:0x111 / me=hex / subme=2 / psy=1 / psy_rd=1.00:0.00 / mixed_ref=0 / me_range=16 / chroma_me=1 / trellis=0 / 8x8dct=0 / cqm=0 / deadzone=21,11 / fast_pskip=1 / chroma_qp_offset=0 / threads=12 / lookahead_threads=4 / sliced_threads=0 / nr=0 / decimate=1 / interlaced=0 / bluray_compat=0 / constrained_intra=0 / bframes=3 / b_pyramid=2 / b_adapt=1 / b_bias=0 / direct=1 / weightb=1 / open_gop=0 / weightp=1 / keyint=240 / keyint_min=24 / scenecut=40 / intra_refresh=0 / rc_lookahead=10 / rc=crf / mbtree=1 / crf=20.0 / qcomp=0.60 / qpmin=0 / qpmax=69 / qpstep=4 / vbv_maxrate=20000 / vbv_bufsize=25000 / crf_max=0.0 / nal_hrd=none / ip_ratio=1.40 / aq=1:1.00\nEncoded date: UTC 2014-03-12 00:49:32\nTagged date: UTC 2014-03-12 01:07:22\nColor primaries: BT.709\nTransfer characteristics: BT.709\nMatrix coefficients: BT.709\n\nAudio\nID: 2\nFormat: AAC\nFormat/Info: Advanced Audio Codec\nFormat profile: LC\nCodec ID: 40\nDuration: 1h 32mn\nBit rate mode: Variable\nBit rate: 160 Kbps\nMaximum bit rate: 385 Kbps\nChannel(s): 2 channels\nChannel positions: Front: L R\nSampling rate: 48.0 KHz\nCompression mode: Lossy\nStream size: 105 MiB (12%)\nLanguage: English\nEncoded date: UTC 2014-03-12 00:49:32\nTagged date: UTC 2014-03-12 01:07:20 \n &lt;a href=&quot;\nhttp://s27.postimg.org/tsb302gub/vlcsnap_2014_03_12_13h27m09s132.png&quot; rel=&quot;nofollow&quot; target=&quot;_NEW&quot;&gt;\nhttp://s27.postimg.org/tsb302gub/vlcsnap_2014_03_12_13h27m09s132.png&lt;/a&gt; &lt;a href=&quot;\nhttp://s27.postimg.org/his29ewn7/vlcsnap_2014_03_12_13h28m19s43.png&quot; rel=&quot;nofollow&quot; target=&quot;_NEW&quot;&gt;\nhttp://s27.postimg.org/his29ewn7/vlcsnap_2014_03_12_13h28m19s43.png&lt;/a&gt; &lt;a href=&quot;\nhttp://s27.postimg.org/tjdia541v/vlcsnap_2014_03_12_13h29m22s141.png&quot; rel=&quot;nofollow&quot; target=&quot;_NEW&quot;&gt;\nhttp://s27.postimg.org/tjdia541v/vlcsnap_2014_03_12_13h29m22s141.png&lt;/a&gt;","torrent":{"xt":"urn:btih:02cd4faa7022124da83d95017c6bc7a75d07d7f3","amp;dn":"Crook+2013+720p+UNRATED+WEBRip+x264+AAC-WTT","amp;tr":["udp%3A%2F%2Ftracker.openbittorrent.com%3A80","udp%3A%2F%2Fopen.demonii.com%3A1337","udp%3A%2F%2Ftracker.coppersurfer.tk%3A6969","udp%3A%2F%2Fexodus.desync.com%3A6969"],"infoHash":"02cd4faa7022124da83d95017c6bc7a75d07d7f3","infoHashBuffer":{"type":"Buffer","data":[2,205,79,170,112,34,18,77,168,61,149,1,124,107,199,167,93,7,215,243]},"announce":[],"urlList":[]}}